<mxfile host="drawio-plugin" modified="2022-10-22T10:32:40.821Z" agent="5.0 (Windows NT 6.2; Win64; x64) AppleWebKit/537.36 (KHTML, like Gecko) Chrome/98.0.4758.102 Safari/537.36" etag="bTIWNRaN55lPlTpefdNu" version="15.5.4" type="embed"><diagram name="entity relationships" id="74ElHqe2EC3aqX6EEn2t"><mxGraphModel dx="1138" dy="743" grid="1" gridSize="10" guides="1" tooltips="1" connect="1" arrows="1" fold="1" page="1" pageScale="1" pageWidth="1600" pageHeight="1700" math="0" shadow="0"><root><mxCell id="79l5Amxugq9wVrUoXMFh-0"/><mxCell id="79l5Amxugq9wVrUoXMFh-1" parent="79l5Amxugq9wVrUoXMFh-0"/><mxCell id="79l5Amxugq9wVrUoXMFh-99" value="" style="fontSize=12;html=1;endArrow=ERzeroToOne;startArrow=ERmandOne;rounded=0;exitX=0;exitY=0.5;exitDx=0;exitDy=0;edgeStyle=entityRelationEdgeStyle;entryX=1;entryY=0.5;entryDx=0;entryDy=0;" parent="79l5Amxugq9wVrUoXMFh-1" source="79l5Amxugq9wVrUoXMFh-71" target="79l5Amxugq9wVrUoXMFh-11" edge="1"><mxGeometry width="100" height="100" relative="1" as="geometry"><mxPoint x="477.5" y="725" as="sourcePoint"/><mxPoint x="380" y="560" as="targetPoint"/></mxGeometry></mxCell><mxCell id="7aHwa-r83lZ46MPhOt-1-4" value="" style="edgeStyle=entityRelationEdgeStyle;fontSize=12;html=1;endArrow=ERoneToMany;rounded=0;" parent="79l5Amxugq9wVrUoXMFh-1" source="79l5Amxugq9wVrUoXMFh-71" edge="1"><mxGeometry width="100" height="100" relative="1" as="geometry"><mxPoint x="780" y="785" as="sourcePoint"/><mxPoint x="1170" y="815" as="targetPoint"/></mxGeometry></mxCell><mxCell id="79l5Amxugq9wVrUoXMFh-100" value="rom.chunks" style="shape=table;startSize=30;container=1;collapsible=1;childLayout=tableLayout;fixedRows=1;rowLines=0;fontStyle=1;align=center;resizeLast=1;" parent="79l5Amxugq9wVrUoXMFh-1" vertex="1"><mxGeometry x="1170" y="740" width="330" height="160" as="geometry"/></mxCell><mxCell id="79l5Amxugq9wVrUoXMFh-101" value="" style="shape=tableRow;horizontal=0;startSize=0;swimlaneHead=0;swimlaneBody=0;fillColor=none;collapsible=0;dropTarget=0;points=[[0,0.5],[1,0.5]];portConstraint=eastwest;top=0;left=0;right=0;bottom=1;" parent="79l5Amxugq9wVrUoXMFh-100" vertex="1"><mxGeometry y="30" width="330" height="30" as="geometry"/></mxCell><mxCell id="79l5Amxugq9wVrUoXMFh-102" value="PK" style="shape=partialRectangle;connectable=0;fillColor=none;top=0;left=0;bottom=0;right=0;fontStyle=1;overflow=hidden;" parent="79l5Amxugq9wVrUoXMFh-101" vertex="1"><mxGeometry width="30" height="30" as="geometry"><mxRectangle width="30" height="30" as="alternateBounds"/></mxGeometry></mxCell><mxCell id="79l5Amxugq9wVrUoXMFh-103" value="_id" style="shape=partialRectangle;connectable=0;fillColor=none;top=0;left=0;bottom=0;right=0;align=left;spacingLeft=6;fontStyle=5;overflow=hidden;" parent="79l5Amxugq9wVrUoXMFh-101" vertex="1"><mxGeometry x="30" width="150" height="30" as="geometry"><mxRectangle width="150" height="30" as="alternateBounds"/></mxGeometry></mxCell><mxCell id="79l5Amxugq9wVrUoXMFh-104" value="ObjectId" style="shape=partialRectangle;connectable=0;fillColor=none;top=0;left=0;bottom=0;right=0;align=left;spacingLeft=6;fontStyle=5;overflow=hidden;" parent="79l5Amxugq9wVrUoXMFh-101" vertex="1"><mxGeometry x="180" width="150" height="30" as="geometry"><mxRectangle width="150" height="30" as="alternateBounds"/></mxGeometry></mxCell><mxCell id="79l5Amxugq9wVrUoXMFh-105" style="shape=tableRow;horizontal=0;startSize=0;swimlaneHead=0;swimlaneBody=0;fillColor=none;collapsible=0;dropTarget=0;points=[[0,0.5],[1,0.5]];portConstraint=eastwest;top=0;left=0;right=0;bottom=1;" parent="79l5Amxugq9wVrUoXMFh-100" vertex="1"><mxGeometry y="60" width="330" height="30" as="geometry"/></mxCell><mxCell id="79l5Amxugq9wVrUoXMFh-106" value="FK" style="shape=partialRectangle;connectable=0;fillColor=none;top=0;left=0;bottom=0;right=0;fontStyle=1;overflow=hidden;" parent="79l5Amxugq9wVrUoXMFh-105" vertex="1"><mxGeometry width="30" height="30" as="geometry"><mxRectangle width="30" height="30" as="alternateBounds"/></mxGeometry></mxCell><mxCell id="79l5Amxugq9wVrUoXMFh-107" value="files_id" style="shape=partialRectangle;connectable=0;fillColor=none;top=0;left=0;bottom=0;right=0;align=left;spacingLeft=6;fontStyle=5;overflow=hidden;" parent="79l5Amxugq9wVrUoXMFh-105" vertex="1"><mxGeometry x="30" width="150" height="30" as="geometry"><mxRectangle width="150" height="30" as="alternateBounds"/></mxGeometry></mxCell><mxCell id="79l5Amxugq9wVrUoXMFh-108" value="ObjectId" style="shape=partialRectangle;connectable=0;fillColor=none;top=0;left=0;bottom=0;right=0;align=left;spacingLeft=6;fontStyle=5;overflow=hidden;" parent="79l5Amxugq9wVrUoXMFh-105" vertex="1"><mxGeometry x="180" width="150" height="30" as="geometry"><mxRectangle width="150" height="30" as="alternateBounds"/></mxGeometry></mxCell><mxCell id="79l5Amxugq9wVrUoXMFh-109" value="" style="shape=tableRow;horizontal=0;startSize=0;swimlaneHead=0;swimlaneBody=0;fillColor=none;collapsible=0;dropTarget=0;points=[[0,0.5],[1,0.5]];portConstraint=eastwest;top=0;left=0;right=0;bottom=0;" parent="79l5Amxugq9wVrUoXMFh-100" vertex="1"><mxGeometry y="90" width="330" height="30" as="geometry"/></mxCell><mxCell id="79l5Amxugq9wVrUoXMFh-110" value="" style="shape=partialRectangle;connectable=0;fillColor=none;top=0;left=0;bottom=0;right=0;editable=1;overflow=hidden;" parent="79l5Amxugq9wVrUoXMFh-109" vertex="1"><mxGeometry width="30" height="30" as="geometry"><mxRectangle width="30" height="30" as="alternateBounds"/></mxGeometry></mxCell><mxCell id="79l5Amxugq9wVrUoXMFh-111" value="n" style="shape=partialRectangle;connectable=0;fillColor=none;top=0;left=0;bottom=0;right=0;align=left;spacingLeft=6;overflow=hidden;" parent="79l5Amxugq9wVrUoXMFh-109" vertex="1"><mxGeometry x="30" width="150" height="30" as="geometry"><mxRectangle width="150" height="30" as="alternateBounds"/></mxGeometry></mxCell><mxCell id="79l5Amxugq9wVrUoXMFh-112" value="int" style="shape=partialRectangle;connectable=0;fillColor=none;top=0;left=0;bottom=0;right=0;align=left;spacingLeft=6;overflow=hidden;" parent="79l5Amxugq9wVrUoXMFh-109" vertex="1"><mxGeometry x="180" width="150" height="30" as="geometry"><mxRectangle width="150" height="30" as="alternateBounds"/></mxGeometry></mxCell><mxCell id="79l5Amxugq9wVrUoXMFh-113" value="" style="shape=tableRow;horizontal=0;startSize=0;swimlaneHead=0;swimlaneBody=0;fillColor=none;collapsible=0;dropTarget=0;points=[[0,0.5],[1,0.5]];portConstraint=eastwest;top=0;left=0;right=0;bottom=0;" parent="79l5Amxugq9wVrUoXMFh-100" vertex="1"><mxGeometry y="120" width="330" height="30" as="geometry"/></mxCell><mxCell id="79l5Amxugq9wVrUoXMFh-114" value="" style="shape=partialRectangle;connectable=0;fillColor=none;top=0;left=0;bottom=0;right=0;editable=1;overflow=hidden;" parent="79l5Amxugq9wVrUoXMFh-113" vertex="1"><mxGeometry width="30" height="30" as="geometry"><mxRectangle width="30" height="30" as="alternateBounds"/></mxGeometry></mxCell><mxCell id="79l5Amxugq9wVrUoXMFh-115" value="data" style="shape=partialRectangle;connectable=0;fillColor=none;top=0;left=0;bottom=0;right=0;align=left;spacingLeft=6;overflow=hidden;" parent="79l5Amxugq9wVrUoXMFh-113" vertex="1"><mxGeometry x="30" width="150" height="30" as="geometry"><mxRectangle width="150" height="30" as="alternateBounds"/></mxGeometry></mxCell><mxCell id="79l5Amxugq9wVrUoXMFh-116" value="binData" style="shape=partialRectangle;connectable=0;fillColor=none;top=0;left=0;bottom=0;right=0;align=left;spacingLeft=6;overflow=hidden;" parent="79l5Amxugq9wVrUoXMFh-113" vertex="1"><mxGeometry x="180" width="150" height="30" as="geometry"><mxRectangle width="150" height="30" as="alternateBounds"/></mxGeometry></mxCell><mxCell id="79l5Amxugq9wVrUoXMFh-70" value="rom.files" style="shape=table;startSize=30;container=1;collapsible=1;childLayout=tableLayout;fixedRows=1;rowLines=0;fontStyle=1;align=center;resizeLast=1;" parent="79l5Amxugq9wVrUoXMFh-1" vertex="1"><mxGeometry x="700" y="750" width="330" height="250" as="geometry"/></mxCell><mxCell id="79l5Amxugq9wVrUoXMFh-71" value="" style="shape=tableRow;horizontal=0;startSize=0;swimlaneHead=0;swimlaneBody=0;fillColor=none;collapsible=0;dropTarget=0;points=[[0,0.5],[1,0.5]];portConstraint=eastwest;top=0;left=0;right=0;bottom=1;" parent="79l5Amxugq9wVrUoXMFh-70" vertex="1"><mxGeometry y="30" width="330" height="30" as="geometry"/></mxCell><mxCell id="79l5Amxugq9wVrUoXMFh-72" value="PK" style="shape=partialRectangle;connectable=0;fillColor=none;top=0;left=0;bottom=0;right=0;fontStyle=1;overflow=hidden;" parent="79l5Amxugq9wVrUoXMFh-71" vertex="1"><mxGeometry width="30" height="30" as="geometry"><mxRectangle width="30" height="30" as="alternateBounds"/></mxGeometry></mxCell><mxCell id="79l5Amxugq9wVrUoXMFh-73" value="_id" style="shape=partialRectangle;connectable=0;fillColor=none;top=0;left=0;bottom=0;right=0;align=left;spacingLeft=6;fontStyle=5;overflow=hidden;" parent="79l5Amxugq9wVrUoXMFh-71" vertex="1"><mxGeometry x="30" width="150" height="30" as="geometry"><mxRectangle width="150" height="30" as="alternateBounds"/></mxGeometry></mxCell><mxCell id="79l5Amxugq9wVrUoXMFh-74" value="ObjectId" style="shape=partialRectangle;connectable=0;fillColor=none;top=0;left=0;bottom=0;right=0;align=left;spacingLeft=6;fontStyle=5;overflow=hidden;" parent="79l5Amxugq9wVrUoXMFh-71" vertex="1"><mxGeometry x="180" width="150" height="30" as="geometry"><mxRectangle width="150" height="30" as="alternateBounds"/></mxGeometry></mxCell><mxCell id="79l5Amxugq9wVrUoXMFh-75" value="" style="shape=tableRow;horizontal=0;startSize=0;swimlaneHead=0;swimlaneBody=0;fillColor=none;collapsible=0;dropTarget=0;points=[[0,0.5],[1,0.5]];portConstraint=eastwest;top=0;left=0;right=0;bottom=0;" parent="79l5Amxugq9wVrUoXMFh-70" vertex="1"><mxGeometry y="60" width="330" height="30" as="geometry"/></mxCell><mxCell id="79l5Amxugq9wVrUoXMFh-76" value="UNQ" style="shape=partialRectangle;connectable=0;fillColor=none;top=0;left=0;bottom=0;right=0;editable=1;overflow=hidden;fontStyle=1" parent="79l5Amxugq9wVrUoXMFh-75" vertex="1"><mxGeometry width="30" height="30" as="geometry"><mxRectangle width="30" height="30" as="alternateBounds"/></mxGeometry></mxCell><mxCell id="79l5Amxugq9wVrUoXMFh-77" value="filename" style="shape=partialRectangle;connectable=0;fillColor=none;top=0;left=0;bottom=0;right=0;align=left;spacingLeft=6;overflow=hidden;" parent="79l5Amxugq9wVrUoXMFh-75" vertex="1"><mxGeometry x="30" width="150" height="30" as="geometry"><mxRectangle width="150" height="30" as="alternateBounds"/></mxGeometry></mxCell><mxCell id="79l5Amxugq9wVrUoXMFh-78" value="string" style="shape=partialRectangle;connectable=0;fillColor=none;top=0;left=0;bottom=0;right=0;align=left;spacingLeft=6;overflow=hidden;" parent="79l5Amxugq9wVrUoXMFh-75" vertex="1"><mxGeometry x="180" width="150" height="30" as="geometry"><mxRectangle width="150" height="30" as="alternateBounds"/></mxGeometry></mxCell><mxCell id="79l5Amxugq9wVrUoXMFh-79" value="" style="shape=tableRow;horizontal=0;startSize=0;swimlaneHead=0;swimlaneBody=0;fillColor=none;collapsible=0;dropTarget=0;points=[[0,0.5],[1,0.5]];portConstraint=eastwest;top=0;left=0;right=0;bottom=0;" parent="79l5Amxugq9wVrUoXMFh-70" vertex="1"><mxGeometry y="90" width="330" height="30" as="geometry"/></mxCell><mxCell id="79l5Amxugq9wVrUoXMFh-80" value="" style="shape=partialRectangle;connectable=0;fillColor=none;top=0;left=0;bottom=0;right=0;editable=1;overflow=hidden;" parent="79l5Amxugq9wVrUoXMFh-79" vertex="1"><mxGeometry width="30" height="30" as="geometry"><mxRectangle width="30" height="30" as="alternateBounds"/></mxGeometry></mxCell><mxCell id="79l5Amxugq9wVrUoXMFh-81" value="chunkSize" style="shape=partialRectangle;connectable=0;fillColor=none;top=0;left=0;bottom=0;right=0;align=left;spacingLeft=6;overflow=hidden;" parent="79l5Amxugq9wVrUoXMFh-79" vertex="1"><mxGeometry x="30" width="150" height="30" as="geometry"><mxRectangle width="150" height="30" as="alternateBounds"/></mxGeometry></mxCell><mxCell id="79l5Amxugq9wVrUoXMFh-82" value="int" style="shape=partialRectangle;connectable=0;fillColor=none;top=0;left=0;bottom=0;right=0;align=left;spacingLeft=6;overflow=hidden;" parent="79l5Amxugq9wVrUoXMFh-79" vertex="1"><mxGeometry x="180" width="150" height="30" as="geometry"><mxRectangle width="150" height="30" as="alternateBounds"/></mxGeometry></mxCell><mxCell id="79l5Amxugq9wVrUoXMFh-83" style="shape=tableRow;horizontal=0;startSize=0;swimlaneHead=0;swimlaneBody=0;fillColor=none;collapsible=0;dropTarget=0;points=[[0,0.5],[1,0.5]];portConstraint=eastwest;top=0;left=0;right=0;bottom=0;" parent="79l5Amxugq9wVrUoXMFh-70" vertex="1"><mxGeometry y="120" width="330" height="30" as="geometry"/></mxCell><mxCell id="79l5Amxugq9wVrUoXMFh-84" style="shape=partialRectangle;connectable=0;fillColor=none;top=0;left=0;bottom=0;right=0;editable=1;overflow=hidden;" parent="79l5Amxugq9wVrUoXMFh-83" vertex="1"><mxGeometry width="30" height="30" as="geometry"><mxRectangle width="30" height="30" as="alternateBounds"/></mxGeometry></mxCell><mxCell id="79l5Amxugq9wVrUoXMFh-85" value="length" style="shape=partialRectangle;connectable=0;fillColor=none;top=0;left=0;bottom=0;right=0;align=left;spacingLeft=6;overflow=hidden;" parent="79l5Amxugq9wVrUoXMFh-83" vertex="1"><mxGeometry x="30" width="150" height="30" as="geometry"><mxRectangle width="150" height="30" as="alternateBounds"/></mxGeometry></mxCell><mxCell id="79l5Amxugq9wVrUoXMFh-86" value="int|long" style="shape=partialRectangle;connectable=0;fillColor=none;top=0;left=0;bottom=0;right=0;align=left;spacingLeft=6;overflow=hidden;" parent="79l5Amxugq9wVrUoXMFh-83" vertex="1"><mxGeometry x="180" width="150" height="30" as="geometry"><mxRectangle width="150" height="30" as="alternateBounds"/></mxGeometry></mxCell><mxCell id="79l5Amxugq9wVrUoXMFh-87" style="shape=tableRow;horizontal=0;startSize=0;swimlaneHead=0;swimlaneBody=0;fillColor=none;collapsible=0;dropTarget=0;points=[[0,0.5],[1,0.5]];portConstraint=eastwest;top=0;left=0;right=0;bottom=0;" parent="79l5Amxugq9wVrUoXMFh-70" vertex="1"><mxGeometry y="150" width="330" height="30" as="geometry"/></mxCell><mxCell id="79l5Amxugq9wVrUoXMFh-88" style="shape=partialRectangle;connectable=0;fillColor=none;top=0;left=0;bottom=0;right=0;editable=1;overflow=hidden;" parent="79l5Amxugq9wVrUoXMFh-87" vertex="1"><mxGeometry width="30" height="30" as="geometry"><mxRectangle width="30" height="30" as="alternateBounds"/></mxGeometry></mxCell><mxCell id="79l5Amxugq9wVrUoXMFh-89" value="md5" style="shape=partialRectangle;connectable=0;fillColor=none;top=0;left=0;bottom=0;right=0;align=left;spacingLeft=6;overflow=hidden;" parent="79l5Amxugq9wVrUoXMFh-87" vertex="1"><mxGeometry x="30" width="150" height="30" as="geometry"><mxRectangle width="150" height="30" as="alternateBounds"/></mxGeometry></mxCell><mxCell id="79l5Amxugq9wVrUoXMFh-90" value="string" style="shape=partialRectangle;connectable=0;fillColor=none;top=0;left=0;bottom=0;right=0;align=left;spacingLeft=6;overflow=hidden;" parent="79l5Amxugq9wVrUoXMFh-87" vertex="1"><mxGeometry x="180" width="150" height="30" as="geometry"><mxRectangle width="150" height="30" as="alternateBounds"/></mxGeometry></mxCell><mxCell id="79l5Amxugq9wVrUoXMFh-91" style="shape=tableRow;horizontal=0;startSize=0;swimlaneHead=0;swimlaneBody=0;fillColor=none;collapsible=0;dropTarget=0;points=[[0,0.5],[1,0.5]];portConstraint=eastwest;top=0;left=0;right=0;bottom=0;" parent="79l5Amxugq9wVrUoXMFh-70" vertex="1"><mxGeometry y="180" width="330" height="30" as="geometry"/></mxCell><mxCell id="79l5Amxugq9wVrUoXMFh-92" style="shape=partialRectangle;connectable=0;fillColor=none;top=0;left=0;bottom=0;right=0;editable=1;overflow=hidden;" parent="79l5Amxugq9wVrUoXMFh-91" vertex="1"><mxGeometry width="30" height="30" as="geometry"><mxRectangle width="30" height="30" as="alternateBounds"/></mxGeometry></mxCell><mxCell id="79l5Amxugq9wVrUoXMFh-93" value="uploadDate" style="shape=partialRectangle;connectable=0;fillColor=none;top=0;left=0;bottom=0;right=0;align=left;spacingLeft=6;overflow=hidden;" parent="79l5Amxugq9wVrUoXMFh-91" vertex="1"><mxGeometry x="30" width="150" height="30" as="geometry"><mxRectangle width="150" height="30" as="alternateBounds"/></mxGeometry></mxCell><mxCell id="79l5Amxugq9wVrUoXMFh-94" value="date" style="shape=partialRectangle;connectable=0;fillColor=none;top=0;left=0;bottom=0;right=0;align=left;spacingLeft=6;overflow=hidden;" parent="79l5Amxugq9wVrUoXMFh-91" vertex="1"><mxGeometry x="180" width="150" height="30" as="geometry"><mxRectangle width="150" height="30" as="alternateBounds"/></mxGeometry></mxCell><mxCell id="79l5Amxugq9wVrUoXMFh-95" value="" style="shape=tableRow;horizontal=0;startSize=0;swimlaneHead=0;swimlaneBody=0;fillColor=none;collapsible=0;dropTarget=0;points=[[0,0.5],[1,0.5]];portConstraint=eastwest;top=0;left=0;right=0;bottom=0;" parent="79l5Amxugq9wVrUoXMFh-70" vertex="1"><mxGeometry y="210" width="330" height="30" as="geometry"/></mxCell><mxCell id="79l5Amxugq9wVrUoXMFh-96" value="" style="shape=partialRectangle;connectable=0;fillColor=none;top=0;left=0;bottom=0;right=0;editable=1;overflow=hidden;" parent="79l5Amxugq9wVrUoXMFh-95" vertex="1"><mxGeometry width="30" height="30" as="geometry"><mxRectangle width="30" height="30" as="alternateBounds"/></mxGeometry></mxCell><mxCell id="79l5Amxugq9wVrUoXMFh-97" value="metadata" style="shape=partialRectangle;connectable=0;fillColor=none;top=0;left=0;bottom=0;right=0;align=left;spacingLeft=6;overflow=hidden;fontStyle=2" parent="79l5Amxugq9wVrUoXMFh-95" vertex="1"><mxGeometry x="30" width="150" height="30" as="geometry"><mxRectangle width="150" height="30" as="alternateBounds"/></mxGeometry></mxCell><mxCell id="79l5Amxugq9wVrUoXMFh-98" value="object" style="shape=partialRectangle;connectable=0;fillColor=none;top=0;left=0;bottom=0;right=0;align=left;spacingLeft=6;overflow=hidden;" parent="79l5Amxugq9wVrUoXMFh-95" vertex="1"><mxGeometry x="180" width="150" height="30" as="geometry"><mxRectangle width="150" height="30" as="alternateBounds"/></mxGeometry></mxCell><mxCell id="79l5Amxugq9wVrUoXMFh-142" value="metadata" style="swimlane;startSize=23;" parent="79l5Amxugq9wVrUoXMFh-1" vertex="1"><mxGeometry x="960" y="1090" width="475" height="390" as="geometry"/></mxCell><mxCell id="79l5Amxugq9wVrUoXMFh-143" value="metadata.contentType" style="swimlane;childLayout=stackLayout;horizontal=1;startSize=30;horizontalStack=0;rounded=1;fontSize=14;fontStyle=0;strokeWidth=2;resizeParent=0;resizeLast=1;shadow=0;dashed=0;align=center;" parent="79l5Amxugq9wVrUoXMFh-142" vertex="1"><mxGeometry x="105" y="70" width="250" height="120" as="geometry"/></mxCell><mxCell id="79l5Amxugq9wVrUoXMFh-144" value="+application/octet-stream&#10;+application/x-rom-file" style="align=left;strokeColor=none;fillColor=none;spacingLeft=4;fontSize=12;verticalAlign=top;resizable=0;rotatable=0;part=1;" parent="79l5Amxugq9wVrUoXMFh-143" vertex="1"><mxGeometry y="30" width="250" height="90" as="geometry"/></mxCell><mxCell id="79l5Amxugq9wVrUoXMFh-145" value="metadata.romType" style="swimlane;childLayout=stackLayout;horizontal=1;startSize=30;horizontalStack=0;rounded=1;fontSize=14;fontStyle=0;strokeWidth=2;resizeParent=0;resizeLast=1;shadow=0;dashed=0;align=center;" parent="79l5Amxugq9wVrUoXMFh-142" vertex="1"><mxGeometry x="125" y="210" width="250" height="150" as="geometry"/></mxCell><mxCell id="79l5Amxugq9wVrUoXMFh-146" value="+GB&#10;+GBC&#10;+GBA&#10;+NDS&#10;+3DS&#10;+XCI" style="align=left;strokeColor=none;fillColor=none;spacingLeft=4;fontSize=12;verticalAlign=top;resizable=0;rotatable=0;part=1;" parent="79l5Amxugq9wVrUoXMFh-145" vertex="1"><mxGeometry y="30" width="250" height="120" as="geometry"/></mxCell><mxCell id="79l5Amxugq9wVrUoXMFh-147" style="edgeStyle=orthogonalEdgeStyle;rounded=0;orthogonalLoop=1;jettySize=auto;html=1;exitX=1;exitY=0.5;exitDx=0;exitDy=0;entryX=0.5;entryY=0;entryDx=0;entryDy=0;startArrow=baseDash;startFill=0;" parent="79l5Amxugq9wVrUoXMFh-1" source="79l5Amxugq9wVrUoXMFh-95" target="79l5Amxugq9wVrUoXMFh-142" edge="1"><mxGeometry relative="1" as="geometry"><mxPoint x="1060" y="1050" as="targetPoint"/></mxGeometry></mxCell><mxCell id="79l5Amxugq9wVrUoXMFh-2" value="roms" style="shape=table;startSize=30;container=1;collapsible=1;childLayout=tableLayout;fixedRows=1;rowLines=0;fontStyle=1;align=center;resizeLast=1;" parent="79l5Amxugq9wVrUoXMFh-1" vertex="1"><mxGeometry x="180" y="70" width="330" height="280" as="geometry"/></mxCell><mxCell id="79l5Amxugq9wVrUoXMFh-3" value="" style="shape=tableRow;horizontal=0;startSize=0;swimlaneHead=0;swimlaneBody=0;fillColor=none;collapsible=0;dropTarget=0;points=[[0,0.5],[1,0.5]];portConstraint=eastwest;top=0;left=0;right=0;bottom=1;" parent="79l5Amxugq9wVrUoXMFh-2" vertex="1"><mxGeometry y="30" width="330" height="30" as="geometry"/></mxCell><mxCell id="79l5Amxugq9wVrUoXMFh-4" value="PK" style="shape=partialRectangle;connectable=0;fillColor=none;top=0;left=0;bottom=0;right=0;fontStyle=1;overflow=hidden;" parent="79l5Amxugq9wVrUoXMFh-3" vertex="1"><mxGeometry width="30" height="30" as="geometry"><mxRectangle width="30" height="30" as="alternateBounds"/></mxGeometry></mxCell><mxCell id="79l5Amxugq9wVrUoXMFh-5" value="id" style="shape=partialRectangle;connectable=0;fillColor=none;top=0;left=0;bottom=0;right=0;align=left;spacingLeft=6;fontStyle=5;overflow=hidden;" parent="79l5Amxugq9wVrUoXMFh-3" vertex="1"><mxGeometry x="30" width="150" height="30" as="geometry"><mxRectangle width="150" height="30" as="alternateBounds"/></mxGeometry></mxCell><mxCell id="79l5Amxugq9wVrUoXMFh-6" value="ubigint(20)" style="shape=partialRectangle;connectable=0;fillColor=none;top=0;left=0;bottom=0;right=0;align=left;spacingLeft=6;fontStyle=5;overflow=hidden;" parent="79l5Amxugq9wVrUoXMFh-3" vertex="1"><mxGeometry x="180" width="150" height="30" as="geometry"><mxRectangle width="150" height="30" as="alternateBounds"/></mxGeometry></mxCell><mxCell id="79l5Amxugq9wVrUoXMFh-7" style="shape=tableRow;horizontal=0;startSize=0;swimlaneHead=0;swimlaneBody=0;fillColor=none;collapsible=0;dropTarget=0;points=[[0,0.5],[1,0.5]];portConstraint=eastwest;top=0;left=0;right=0;bottom=1;" parent="79l5Amxugq9wVrUoXMFh-2" vertex="1"><mxGeometry y="60" width="330" height="30" as="geometry"/></mxCell><mxCell id="79l5Amxugq9wVrUoXMFh-8" value="KEY" style="shape=partialRectangle;connectable=0;fillColor=none;top=0;left=0;bottom=0;right=0;fontStyle=1;overflow=hidden;" parent="79l5Amxugq9wVrUoXMFh-7" vertex="1"><mxGeometry width="30" height="30" as="geometry"><mxRectangle width="30" height="30" as="alternateBounds"/></mxGeometry></mxCell><mxCell id="79l5Amxugq9wVrUoXMFh-9" value="game_id" style="shape=partialRectangle;connectable=0;fillColor=none;top=0;left=0;bottom=0;right=0;align=left;spacingLeft=6;fontStyle=5;overflow=hidden;" parent="79l5Amxugq9wVrUoXMFh-7" vertex="1"><mxGeometry x="30" width="150" height="30" as="geometry"><mxRectangle width="150" height="30" as="alternateBounds"/></mxGeometry></mxCell><mxCell id="79l5Amxugq9wVrUoXMFh-10" value="ubigint(20)" style="shape=partialRectangle;connectable=0;fillColor=none;top=0;left=0;bottom=0;right=0;align=left;spacingLeft=6;fontStyle=5;overflow=hidden;" parent="79l5Amxugq9wVrUoXMFh-7" vertex="1"><mxGeometry x="180" width="150" height="30" as="geometry"><mxRectangle width="150" height="30" as="alternateBounds"/></mxGeometry></mxCell><mxCell id="79l5Amxugq9wVrUoXMFh-11" style="shape=tableRow;horizontal=0;startSize=0;swimlaneHead=0;swimlaneBody=0;fillColor=none;collapsible=0;dropTarget=0;points=[[0,0.5],[1,0.5]];portConstraint=eastwest;top=0;left=0;right=0;bottom=1;" parent="79l5Amxugq9wVrUoXMFh-2" vertex="1"><mxGeometry y="90" width="330" height="30" as="geometry"/></mxCell><mxCell id="79l5Amxugq9wVrUoXMFh-12" value="FK" style="shape=partialRectangle;connectable=0;fillColor=none;top=0;left=0;bottom=0;right=0;fontStyle=1;overflow=hidden;" parent="79l5Amxugq9wVrUoXMFh-11" vertex="1"><mxGeometry width="30" height="30" as="geometry"><mxRectangle width="30" height="30" as="alternateBounds"/></mxGeometry></mxCell><mxCell id="79l5Amxugq9wVrUoXMFh-13" value="file_id" style="shape=partialRectangle;connectable=0;fillColor=none;top=0;left=0;bottom=0;right=0;align=left;spacingLeft=6;fontStyle=5;overflow=hidden;" parent="79l5Amxugq9wVrUoXMFh-11" vertex="1"><mxGeometry x="30" width="150" height="30" as="geometry"><mxRectangle width="150" height="30" as="alternateBounds"/></mxGeometry></mxCell><mxCell id="79l5Amxugq9wVrUoXMFh-14" value="char(24)" style="shape=partialRectangle;connectable=0;fillColor=none;top=0;left=0;bottom=0;right=0;align=left;spacingLeft=6;fontStyle=5;overflow=hidden;" parent="79l5Amxugq9wVrUoXMFh-11" vertex="1"><mxGeometry x="180" width="150" height="30" as="geometry"><mxRectangle width="150" height="30" as="alternateBounds"/></mxGeometry></mxCell><mxCell id="79l5Amxugq9wVrUoXMFh-15" value="" style="shape=tableRow;horizontal=0;startSize=0;swimlaneHead=0;swimlaneBody=0;fillColor=none;collapsible=0;dropTarget=0;points=[[0,0.5],[1,0.5]];portConstraint=eastwest;top=0;left=0;right=0;bottom=0;" parent="79l5Amxugq9wVrUoXMFh-2" vertex="1"><mxGeometry y="120" width="330" height="30" as="geometry"/></mxCell><mxCell id="79l5Amxugq9wVrUoXMFh-16" value="UNQ" style="shape=partialRectangle;connectable=0;fillColor=none;top=0;left=0;bottom=0;right=0;editable=1;overflow=hidden;fontStyle=1" parent="79l5Amxugq9wVrUoXMFh-15" vertex="1"><mxGeometry width="30" height="30" as="geometry"><mxRectangle width="30" height="30" as="alternateBounds"/></mxGeometry></mxCell><mxCell id="79l5Amxugq9wVrUoXMFh-17" value="rom_name" style="shape=partialRectangle;connectable=0;fillColor=none;top=0;left=0;bottom=0;right=0;align=left;spacingLeft=6;overflow=hidden;" parent="79l5Amxugq9wVrUoXMFh-15" vertex="1"><mxGeometry x="30" width="150" height="30" as="geometry"><mxRectangle width="150" height="30" as="alternateBounds"/></mxGeometry></mxCell><mxCell id="79l5Amxugq9wVrUoXMFh-18" value="varchar(30)" style="shape=partialRectangle;connectable=0;fillColor=none;top=0;left=0;bottom=0;right=0;align=left;spacingLeft=6;overflow=hidden;" parent="79l5Amxugq9wVrUoXMFh-15" vertex="1"><mxGeometry x="180" width="150" height="30" as="geometry"><mxRectangle width="150" height="30" as="alternateBounds"/></mxGeometry></mxCell><mxCell id="79l5Amxugq9wVrUoXMFh-19" value="" style="shape=tableRow;horizontal=0;startSize=0;swimlaneHead=0;swimlaneBody=0;fillColor=none;collapsible=0;dropTarget=0;points=[[0,0.5],[1,0.5]];portConstraint=eastwest;top=0;left=0;right=0;bottom=0;" parent="79l5Amxugq9wVrUoXMFh-2" vertex="1"><mxGeometry y="150" width="330" height="30" as="geometry"/></mxCell><mxCell id="79l5Amxugq9wVrUoXMFh-20" value="" style="shape=partialRectangle;connectable=0;fillColor=none;top=0;left=0;bottom=0;right=0;editable=1;overflow=hidden;" parent="79l5Amxugq9wVrUoXMFh-19" vertex="1"><mxGeometry width="30" height="30" as="geometry"><mxRectangle width="30" height="30" as="alternateBounds"/></mxGeometry></mxCell><mxCell id="79l5Amxugq9wVrUoXMFh-21" value="rom_type" style="shape=partialRectangle;connectable=0;fillColor=none;top=0;left=0;bottom=0;right=0;align=left;spacingLeft=6;overflow=hidden;" parent="79l5Amxugq9wVrUoXMFh-19" vertex="1"><mxGeometry x="30" width="150" height="30" as="geometry"><mxRectangle width="150" height="30" as="alternateBounds"/></mxGeometry></mxCell><mxCell id="79l5Amxugq9wVrUoXMFh-22" value="enum" style="shape=partialRectangle;connectable=0;fillColor=none;top=0;left=0;bottom=0;right=0;align=left;spacingLeft=6;overflow=hidden;" parent="79l5Amxugq9wVrUoXMFh-19" vertex="1"><mxGeometry x="180" width="150" height="30" as="geometry"><mxRectangle width="150" height="30" as="alternateBounds"/></mxGeometry></mxCell><mxCell id="79l5Amxugq9wVrUoXMFh-23" style="shape=tableRow;horizontal=0;startSize=0;swimlaneHead=0;swimlaneBody=0;fillColor=none;collapsible=0;dropTarget=0;points=[[0,0.5],[1,0.5]];portConstraint=eastwest;top=0;left=0;right=0;bottom=0;" parent="79l5Amxugq9wVrUoXMFh-2" vertex="1"><mxGeometry y="180" width="330" height="30" as="geometry"/></mxCell><mxCell id="79l5Amxugq9wVrUoXMFh-24" style="shape=partialRectangle;connectable=0;fillColor=none;top=0;left=0;bottom=0;right=0;editable=1;overflow=hidden;" parent="79l5Amxugq9wVrUoXMFh-23" vertex="1"><mxGeometry width="30" height="30" as="geometry"><mxRectangle width="30" height="30" as="alternateBounds"/></mxGeometry></mxCell><mxCell id="79l5Amxugq9wVrUoXMFh-25" value="rom_size" style="shape=partialRectangle;connectable=0;fillColor=none;top=0;left=0;bottom=0;right=0;align=left;spacingLeft=6;overflow=hidden;" parent="79l5Amxugq9wVrUoXMFh-23" vertex="1"><mxGeometry x="30" width="150" height="30" as="geometry"><mxRectangle width="150" height="30" as="alternateBounds"/></mxGeometry></mxCell><mxCell id="79l5Amxugq9wVrUoXMFh-26" value="uint(10)" style="shape=partialRectangle;connectable=0;fillColor=none;top=0;left=0;bottom=0;right=0;align=left;spacingLeft=6;overflow=hidden;" parent="79l5Amxugq9wVrUoXMFh-23" vertex="1"><mxGeometry x="180" width="150" height="30" as="geometry"><mxRectangle width="150" height="30" as="alternateBounds"/></mxGeometry></mxCell><mxCell id="79l5Amxugq9wVrUoXMFh-27" value="" style="shape=tableRow;horizontal=0;startSize=0;swimlaneHead=0;swimlaneBody=0;fillColor=none;collapsible=0;dropTarget=0;points=[[0,0.5],[1,0.5]];portConstraint=eastwest;top=0;left=0;right=0;bottom=0;" parent="79l5Amxugq9wVrUoXMFh-2" vertex="1"><mxGeometry y="210" width="330" height="30" as="geometry"/></mxCell><mxCell id="79l5Amxugq9wVrUoXMFh-28" value="" style="shape=partialRectangle;connectable=0;fillColor=none;top=0;left=0;bottom=0;right=0;editable=1;overflow=hidden;" parent="79l5Amxugq9wVrUoXMFh-27" vertex="1"><mxGeometry width="30" height="30" as="geometry"><mxRectangle width="30" height="30" as="alternateBounds"/></mxGeometry></mxCell><mxCell id="79l5Amxugq9wVrUoXMFh-29" value="has_file" style="shape=partialRectangle;connectable=0;fillColor=none;top=0;left=0;bottom=0;right=0;align=left;spacingLeft=6;overflow=hidden;" parent="79l5Amxugq9wVrUoXMFh-27" vertex="1"><mxGeometry x="30" width="150" height="30" as="geometry"><mxRectangle width="150" height="30" as="alternateBounds"/></mxGeometry></mxCell><mxCell id="79l5Amxugq9wVrUoXMFh-30" value="tinyint(1)" style="shape=partialRectangle;connectable=0;fillColor=none;top=0;left=0;bottom=0;right=0;align=left;spacingLeft=6;overflow=hidden;" parent="79l5Amxugq9wVrUoXMFh-27" vertex="1"><mxGeometry x="180" width="150" height="30" as="geometry"><mxRectangle width="150" height="30" as="alternateBounds"/></mxGeometry></mxCell><mxCell id="79l5Amxugq9wVrUoXMFh-31" style="shape=tableRow;horizontal=0;startSize=0;swimlaneHead=0;swimlaneBody=0;fillColor=none;collapsible=0;dropTarget=0;points=[[0,0.5],[1,0.5]];portConstraint=eastwest;top=0;left=0;right=0;bottom=0;" parent="79l5Amxugq9wVrUoXMFh-2" vertex="1"><mxGeometry y="240" width="330" height="30" as="geometry"/></mxCell><mxCell id="79l5Amxugq9wVrUoXMFh-32" style="shape=partialRectangle;connectable=0;fillColor=none;top=0;left=0;bottom=0;right=0;editable=1;overflow=hidden;" parent="79l5Amxugq9wVrUoXMFh-31" vertex="1"><mxGeometry width="30" height="30" as="geometry"><mxRectangle width="30" height="30" as="alternateBounds"/></mxGeometry></mxCell><mxCell id="79l5Amxugq9wVrUoXMFh-33" value="has_game" style="shape=partialRectangle;connectable=0;fillColor=none;top=0;left=0;bottom=0;right=0;align=left;spacingLeft=6;overflow=hidden;" parent="79l5Amxugq9wVrUoXMFh-31" vertex="1"><mxGeometry x="30" width="150" height="30" as="geometry"><mxRectangle width="150" height="30" as="alternateBounds"/></mxGeometry></mxCell><mxCell id="79l5Amxugq9wVrUoXMFh-34" value="tinyint(1)" style="shape=partialRectangle;connectable=0;fillColor=none;top=0;left=0;bottom=0;right=0;align=left;spacingLeft=6;overflow=hidden;" parent="79l5Amxugq9wVrUoXMFh-31" vertex="1"><mxGeometry x="180" width="150" height="30" as="geometry"><mxRectangle width="150" height="30" as="alternateBounds"/></mxGeometry></mxCell><mxCell id="79l5Amxugq9wVrUoXMFh-35" value="games" style="shape=table;startSize=30;container=1;collapsible=1;childLayout=tableLayout;fixedRows=1;rowLines=0;fontStyle=1;align=center;resizeLast=1;" parent="79l5Amxugq9wVrUoXMFh-1" vertex="1"><mxGeometry x="780" y="80" width="330" height="280" as="geometry"/></mxCell><mxCell id="79l5Amxugq9wVrUoXMFh-36" value="" style="shape=tableRow;horizontal=0;startSize=0;swimlaneHead=0;swimlaneBody=0;fillColor=none;collapsible=0;dropTarget=0;points=[[0,0.5],[1,0.5]];portConstraint=eastwest;top=0;left=0;right=0;bottom=1;" parent="79l5Amxugq9wVrUoXMFh-35" vertex="1"><mxGeometry y="30" width="330" height="30" as="geometry"/></mxCell><mxCell id="79l5Amxugq9wVrUoXMFh-37" value="PK" style="shape=partialRectangle;connectable=0;fillColor=none;top=0;left=0;bottom=0;right=0;fontStyle=1;overflow=hidden;" parent="79l5Amxugq9wVrUoXMFh-36" vertex="1"><mxGeometry width="30" height="30" as="geometry"><mxRectangle width="30" height="30" as="alternateBounds"/></mxGeometry></mxCell><mxCell id="79l5Amxugq9wVrUoXMFh-38" value="id" style="shape=partialRectangle;connectable=0;fillColor=none;top=0;left=0;bottom=0;right=0;align=left;spacingLeft=6;fontStyle=5;overflow=hidden;" parent="79l5Amxugq9wVrUoXMFh-36" vertex="1"><mxGeometry x="30" width="150" height="30" as="geometry"><mxRectangle width="150" height="30" as="alternateBounds"/></mxGeometry></mxCell><mxCell id="79l5Amxugq9wVrUoXMFh-39" value="ubigint(20)" style="shape=partialRectangle;connectable=0;fillColor=none;top=0;left=0;bottom=0;right=0;align=left;spacingLeft=6;fontStyle=5;overflow=hidden;" parent="79l5Amxugq9wVrUoXMFh-36" vertex="1"><mxGeometry x="180" width="150" height="30" as="geometry"><mxRectangle width="150" height="30" as="alternateBounds"/></mxGeometry></mxCell><mxCell id="79l5Amxugq9wVrUoXMFh-40" style="shape=tableRow;horizontal=0;startSize=0;swimlaneHead=0;swimlaneBody=0;fillColor=none;collapsible=0;dropTarget=0;points=[[0,0.5],[1,0.5]];portConstraint=eastwest;top=0;left=0;right=0;bottom=1;" parent="79l5Amxugq9wVrUoXMFh-35" vertex="1"><mxGeometry y="60" width="330" height="30" as="geometry"/></mxCell><mxCell id="79l5Amxugq9wVrUoXMFh-41" value="FK" style="shape=partialRectangle;connectable=0;fillColor=none;top=0;left=0;bottom=0;right=0;fontStyle=1;overflow=hidden;" parent="79l5Amxugq9wVrUoXMFh-40" vertex="1"><mxGeometry width="30" height="30" as="geometry"><mxRectangle width="30" height="30" as="alternateBounds"/></mxGeometry></mxCell><mxCell id="79l5Amxugq9wVrUoXMFh-42" value="rom_id" style="shape=partialRectangle;connectable=0;fillColor=none;top=0;left=0;bottom=0;right=0;align=left;spacingLeft=6;fontStyle=5;overflow=hidden;" parent="79l5Amxugq9wVrUoXMFh-40" vertex="1"><mxGeometry x="30" width="150" height="30" as="geometry"><mxRectangle width="150" height="30" as="alternateBounds"/></mxGeometry></mxCell><mxCell id="79l5Amxugq9wVrUoXMFh-43" value="ubigint(20)" style="shape=partialRectangle;connectable=0;fillColor=none;top=0;left=0;bottom=0;right=0;align=left;spacingLeft=6;fontStyle=5;overflow=hidden;" parent="79l5Amxugq9wVrUoXMFh-40" vertex="1"><mxGeometry x="180" width="150" height="30" as="geometry"><mxRectangle width="150" height="30" as="alternateBounds"/></mxGeometry></mxCell><mxCell id="79l5Amxugq9wVrUoXMFh-44" value="" style="shape=tableRow;horizontal=0;startSize=0;swimlaneHead=0;swimlaneBody=0;fillColor=none;collapsible=0;dropTarget=0;points=[[0,0.5],[1,0.5]];portConstraint=eastwest;top=0;left=0;right=0;bottom=0;" parent="79l5Amxugq9wVrUoXMFh-35" vertex="1"><mxGeometry y="90" width="330" height="30" as="geometry"/></mxCell><mxCell id="79l5Amxugq9wVrUoXMFh-45" value="" style="shape=partialRectangle;connectable=0;fillColor=none;top=0;left=0;bottom=0;right=0;editable=1;overflow=hidden;" parent="79l5Amxugq9wVrUoXMFh-44" vertex="1"><mxGeometry width="30" height="30" as="geometry"><mxRectangle width="30" height="30" as="alternateBounds"/></mxGeometry></mxCell><mxCell id="79l5Amxugq9wVrUoXMFh-46" value="game_name" style="shape=partialRectangle;connectable=0;fillColor=none;top=0;left=0;bottom=0;right=0;align=left;spacingLeft=6;overflow=hidden;" parent="79l5Amxugq9wVrUoXMFh-44" vertex="1"><mxGeometry x="30" width="150" height="30" as="geometry"><mxRectangle width="150" height="30" as="alternateBounds"/></mxGeometry></mxCell><mxCell id="79l5Amxugq9wVrUoXMFh-47" value="varchar(40)" style="shape=partialRectangle;connectable=0;fillColor=none;top=0;left=0;bottom=0;right=0;align=left;spacingLeft=6;overflow=hidden;" parent="79l5Amxugq9wVrUoXMFh-44" vertex="1"><mxGeometry x="180" width="150" height="30" as="geometry"><mxRectangle width="150" height="30" as="alternateBounds"/></mxGeometry></mxCell><mxCell id="79l5Amxugq9wVrUoXMFh-48" value="" style="shape=tableRow;horizontal=0;startSize=0;swimlaneHead=0;swimlaneBody=0;fillColor=none;collapsible=0;dropTarget=0;points=[[0,0.5],[1,0.5]];portConstraint=eastwest;top=0;left=0;right=0;bottom=0;" parent="79l5Amxugq9wVrUoXMFh-35" vertex="1"><mxGeometry y="120" width="330" height="30" as="geometry"/></mxCell><mxCell id="79l5Amxugq9wVrUoXMFh-49" value="" style="shape=partialRectangle;connectable=0;fillColor=none;top=0;left=0;bottom=0;right=0;editable=1;overflow=hidden;" parent="79l5Amxugq9wVrUoXMFh-48" vertex="1"><mxGeometry width="30" height="30" as="geometry"><mxRectangle width="30" height="30" as="alternateBounds"/></mxGeometry></mxCell><mxCell id="79l5Amxugq9wVrUoXMFh-50" value="region" style="shape=partialRectangle;connectable=0;fillColor=none;top=0;left=0;bottom=0;right=0;align=left;spacingLeft=6;overflow=hidden;" parent="79l5Amxugq9wVrUoXMFh-48" vertex="1"><mxGeometry x="30" width="150" height="30" as="geometry"><mxRectangle width="150" height="30" as="alternateBounds"/></mxGeometry></mxCell><mxCell id="79l5Amxugq9wVrUoXMFh-51" value="enum" style="shape=partialRectangle;connectable=0;fillColor=none;top=0;left=0;bottom=0;right=0;align=left;spacingLeft=6;overflow=hidden;" parent="79l5Amxugq9wVrUoXMFh-48" vertex="1"><mxGeometry x="180" width="150" height="30" as="geometry"><mxRectangle width="150" height="30" as="alternateBounds"/></mxGeometry></mxCell><mxCell id="79l5Amxugq9wVrUoXMFh-52" value="" style="shape=tableRow;horizontal=0;startSize=0;swimlaneHead=0;swimlaneBody=0;fillColor=none;collapsible=0;dropTarget=0;points=[[0,0.5],[1,0.5]];portConstraint=eastwest;top=0;left=0;right=0;bottom=0;" parent="79l5Amxugq9wVrUoXMFh-35" vertex="1"><mxGeometry y="150" width="330" height="30" as="geometry"/></mxCell><mxCell id="79l5Amxugq9wVrUoXMFh-53" value="" style="shape=partialRectangle;connectable=0;fillColor=none;top=0;left=0;bottom=0;right=0;editable=1;overflow=hidden;" parent="79l5Amxugq9wVrUoXMFh-52" vertex="1"><mxGeometry width="30" height="30" as="geometry"><mxRectangle width="30" height="30" as="alternateBounds"/></mxGeometry></mxCell><mxCell id="79l5Amxugq9wVrUoXMFh-54" value="game_type" style="shape=partialRectangle;connectable=0;fillColor=none;top=0;left=0;bottom=0;right=0;align=left;spacingLeft=6;overflow=hidden;" parent="79l5Amxugq9wVrUoXMFh-52" vertex="1"><mxGeometry x="30" width="150" height="30" as="geometry"><mxRectangle width="150" height="30" as="alternateBounds"/></mxGeometry></mxCell><mxCell id="79l5Amxugq9wVrUoXMFh-55" value="enum" style="shape=partialRectangle;connectable=0;fillColor=none;top=0;left=0;bottom=0;right=0;align=left;spacingLeft=6;overflow=hidden;" parent="79l5Amxugq9wVrUoXMFh-52" vertex="1"><mxGeometry x="180" width="150" height="30" as="geometry"><mxRectangle width="150" height="30" as="alternateBounds"/></mxGeometry></mxCell><mxCell id="79l5Amxugq9wVrUoXMFh-56" style="shape=tableRow;horizontal=0;startSize=0;swimlaneHead=0;swimlaneBody=0;fillColor=none;collapsible=0;dropTarget=0;points=[[0,0.5],[1,0.5]];portConstraint=eastwest;top=0;left=0;right=0;bottom=0;" parent="79l5Amxugq9wVrUoXMFh-35" vertex="1"><mxGeometry y="180" width="330" height="30" as="geometry"/></mxCell><mxCell id="79l5Amxugq9wVrUoXMFh-57" style="shape=partialRectangle;connectable=0;fillColor=none;top=0;left=0;bottom=0;right=0;editable=1;overflow=hidden;" parent="79l5Amxugq9wVrUoXMFh-56" vertex="1"><mxGeometry width="30" height="30" as="geometry"><mxRectangle width="30" height="30" as="alternateBounds"/></mxGeometry></mxCell><mxCell id="79l5Amxugq9wVrUoXMFh-58" value="generation" style="shape=partialRectangle;connectable=0;fillColor=none;top=0;left=0;bottom=0;right=0;align=left;spacingLeft=6;overflow=hidden;" parent="79l5Amxugq9wVrUoXMFh-56" vertex="1"><mxGeometry x="30" width="150" height="30" as="geometry"><mxRectangle width="150" height="30" as="alternateBounds"/></mxGeometry></mxCell><mxCell id="79l5Amxugq9wVrUoXMFh-59" value="utinyint(2)" style="shape=partialRectangle;connectable=0;fillColor=none;top=0;left=0;bottom=0;right=0;align=left;spacingLeft=6;overflow=hidden;" parent="79l5Amxugq9wVrUoXMFh-56" vertex="1"><mxGeometry x="180" width="150" height="30" as="geometry"><mxRectangle width="150" height="30" as="alternateBounds"/></mxGeometry></mxCell><mxCell id="79l5Amxugq9wVrUoXMFh-60" style="shape=tableRow;horizontal=0;startSize=0;swimlaneHead=0;swimlaneBody=0;fillColor=none;collapsible=0;dropTarget=0;points=[[0,0.5],[1,0.5]];portConstraint=eastwest;top=0;left=0;right=0;bottom=0;" parent="79l5Amxugq9wVrUoXMFh-35" vertex="1"><mxGeometry y="210" width="330" height="30" as="geometry"/></mxCell><mxCell id="79l5Amxugq9wVrUoXMFh-61" style="shape=partialRectangle;connectable=0;fillColor=none;top=0;left=0;bottom=0;right=0;editable=1;overflow=hidden;" parent="79l5Amxugq9wVrUoXMFh-60" vertex="1"><mxGeometry width="30" height="30" as="geometry"><mxRectangle width="30" height="30" as="alternateBounds"/></mxGeometry></mxCell><mxCell id="79l5Amxugq9wVrUoXMFh-62" value="date_released" style="shape=partialRectangle;connectable=0;fillColor=none;top=0;left=0;bottom=0;right=0;align=left;spacingLeft=6;overflow=hidden;" parent="79l5Amxugq9wVrUoXMFh-60" vertex="1"><mxGeometry x="30" width="150" height="30" as="geometry"><mxRectangle width="150" height="30" as="alternateBounds"/></mxGeometry></mxCell><mxCell id="79l5Amxugq9wVrUoXMFh-63" value="date" style="shape=partialRectangle;connectable=0;fillColor=none;top=0;left=0;bottom=0;right=0;align=left;spacingLeft=6;overflow=hidden;" parent="79l5Amxugq9wVrUoXMFh-60" vertex="1"><mxGeometry x="180" width="150" height="30" as="geometry"><mxRectangle width="150" height="30" as="alternateBounds"/></mxGeometry></mxCell><mxCell id="79l5Amxugq9wVrUoXMFh-64" style="shape=tableRow;horizontal=0;startSize=0;swimlaneHead=0;swimlaneBody=0;fillColor=none;collapsible=0;dropTarget=0;points=[[0,0.5],[1,0.5]];portConstraint=eastwest;top=0;left=0;right=0;bottom=0;" parent="79l5Amxugq9wVrUoXMFh-35" vertex="1"><mxGeometry y="240" width="330" height="30" as="geometry"/></mxCell><mxCell id="79l5Amxugq9wVrUoXMFh-65" value="UNQ" style="shape=partialRectangle;connectable=0;fillColor=none;top=0;left=0;bottom=0;right=0;editable=1;overflow=hidden;fontStyle=1" parent="79l5Amxugq9wVrUoXMFh-64" vertex="1"><mxGeometry width="30" height="30" as="geometry"><mxRectangle width="30" height="30" as="alternateBounds"/></mxGeometry></mxCell><mxCell id="79l5Amxugq9wVrUoXMFh-66" value="slug" style="shape=partialRectangle;connectable=0;fillColor=none;top=0;left=0;bottom=0;right=0;align=left;spacingLeft=6;overflow=hidden;" parent="79l5Amxugq9wVrUoXMFh-64" vertex="1"><mxGeometry x="30" width="150" height="30" as="geometry"><mxRectangle width="150" height="30" as="alternateBounds"/></mxGeometry></mxCell><mxCell id="79l5Amxugq9wVrUoXMFh-67" value="varchar(42)" style="shape=partialRectangle;connectable=0;fillColor=none;top=0;left=0;bottom=0;right=0;align=left;spacingLeft=6;overflow=hidden;" parent="79l5Amxugq9wVrUoXMFh-64" vertex="1"><mxGeometry x="180" width="150" height="30" as="geometry"><mxRectangle width="150" height="30" as="alternateBounds"/></mxGeometry></mxCell><mxCell id="79l5Amxugq9wVrUoXMFh-69" value="" style="edgeStyle=entityRelationEdgeStyle;fontSize=12;html=1;endArrow=ERzeroToOne;startArrow=ERmandOne;rounded=0;entryX=1;entryY=0.5;entryDx=0;entryDy=0;exitX=0;exitY=0.5;exitDx=0;exitDy=0;" parent="79l5Amxugq9wVrUoXMFh-1" source="79l5Amxugq9wVrUoXMFh-36" target="79l5Amxugq9wVrUoXMFh-7" edge="1"><mxGeometry width="100" height="100" relative="1" as="geometry"><mxPoint x="595" y="320" as="sourcePoint"/><mxPoint x="695" y="220" as="targetPoint"/></mxGeometry></mxCell><mxCell id="79l5Amxugq9wVrUoXMFh-68" value="" style="edgeStyle=entityRelationEdgeStyle;fontSize=12;html=1;endArrow=ERmandOne;startArrow=ERmandOne;rounded=0;entryX=0;entryY=0.5;entryDx=0;entryDy=0;exitX=1;exitY=0.5;exitDx=0;exitDy=0;" parent="79l5Amxugq9wVrUoXMFh-1" source="79l5Amxugq9wVrUoXMFh-3" target="79l5Amxugq9wVrUoXMFh-40" edge="1"><mxGeometry width="100" height="100" relative="1" as="geometry"><mxPoint x="585" y="280" as="sourcePoint"/><mxPoint x="685" y="180" as="targetPoint"/></mxGeometry></mxCell><mxCell id="79l5Amxugq9wVrUoXMFh-135" value="game_types: enum" style="swimlane;fontStyle=0;childLayout=stackLayout;horizontal=1;startSize=30;horizontalStack=0;resizeParent=1;resizeParentMax=0;resizeLast=0;collapsible=1;marginBottom=0;" parent="79l5Amxugq9wVrUoXMFh-1" vertex="1"><mxGeometry x="1110" y="450" width="140" height="120" as="geometry"/></mxCell><mxCell id="79l5Amxugq9wVrUoXMFh-136" value="core" style="text;strokeColor=none;fillColor=none;align=left;verticalAlign=middle;spacingLeft=4;spacingRight=4;overflow=hidden;points=[[0,0.5],[1,0.5]];portConstraint=eastwest;rotatable=0;" parent="79l5Amxugq9wVrUoXMFh-135" vertex="1"><mxGeometry y="30" width="140" height="30" as="geometry"/></mxCell><mxCell id="79l5Amxugq9wVrUoXMFh-137" value="spin-off" style="text;strokeColor=none;fillColor=none;align=left;verticalAlign=middle;spacingLeft=4;spacingRight=4;overflow=hidden;points=[[0,0.5],[1,0.5]];portConstraint=eastwest;rotatable=0;" parent="79l5Amxugq9wVrUoXMFh-135" vertex="1"><mxGeometry y="60" width="140" height="30" as="geometry"/></mxCell><mxCell id="79l5Amxugq9wVrUoXMFh-138" value="hack" style="text;strokeColor=none;fillColor=none;align=left;verticalAlign=middle;spacingLeft=4;spacingRight=4;overflow=hidden;points=[[0,0.5],[1,0.5]];portConstraint=eastwest;rotatable=0;" parent="79l5Amxugq9wVrUoXMFh-135" vertex="1"><mxGeometry y="90" width="140" height="30" as="geometry"/></mxCell><mxCell id="79l5Amxugq9wVrUoXMFh-141" style="edgeStyle=orthogonalEdgeStyle;rounded=0;orthogonalLoop=1;jettySize=auto;html=1;exitX=1;exitY=0.5;exitDx=0;exitDy=0;entryX=0.5;entryY=0;entryDx=0;entryDy=0;startArrow=baseDash;startFill=0;" parent="79l5Amxugq9wVrUoXMFh-1" source="79l5Amxugq9wVrUoXMFh-52" target="79l5Amxugq9wVrUoXMFh-135" edge="1"><mxGeometry relative="1" as="geometry"/></mxCell><mxCell id="79l5Amxugq9wVrUoXMFh-118" value="regions: enum" style="swimlane;fontStyle=0;childLayout=stackLayout;horizontal=1;startSize=30;horizontalStack=0;resizeParent=1;resizeParentMax=0;resizeLast=0;collapsible=1;marginBottom=0;" parent="79l5Amxugq9wVrUoXMFh-1" vertex="1"><mxGeometry x="1360" y="110" width="140" height="300" as="geometry"/></mxCell><mxCell id="79l5Amxugq9wVrUoXMFh-119" value="kanto" style="text;strokeColor=none;fillColor=none;align=left;verticalAlign=middle;spacingLeft=4;spacingRight=4;overflow=hidden;points=[[0,0.5],[1,0.5]];portConstraint=eastwest;rotatable=0;" parent="79l5Amxugq9wVrUoXMFh-118" vertex="1"><mxGeometry y="30" width="140" height="30" as="geometry"/></mxCell><mxCell id="79l5Amxugq9wVrUoXMFh-120" value="johto" style="text;strokeColor=none;fillColor=none;align=left;verticalAlign=middle;spacingLeft=4;spacingRight=4;overflow=hidden;points=[[0,0.5],[1,0.5]];portConstraint=eastwest;rotatable=0;" parent="79l5Amxugq9wVrUoXMFh-118" vertex="1"><mxGeometry y="60" width="140" height="30" as="geometry"/></mxCell><mxCell id="79l5Amxugq9wVrUoXMFh-121" value="hoenn" style="text;strokeColor=none;fillColor=none;align=left;verticalAlign=middle;spacingLeft=4;spacingRight=4;overflow=hidden;points=[[0,0.5],[1,0.5]];portConstraint=eastwest;rotatable=0;" parent="79l5Amxugq9wVrUoXMFh-118" vertex="1"><mxGeometry y="90" width="140" height="30" as="geometry"/></mxCell><mxCell id="79l5Amxugq9wVrUoXMFh-122" value="sinnoh" style="text;strokeColor=none;fillColor=none;align=left;verticalAlign=middle;spacingLeft=4;spacingRight=4;overflow=hidden;points=[[0,0.5],[1,0.5]];portConstraint=eastwest;rotatable=0;" parent="79l5Amxugq9wVrUoXMFh-118" vertex="1"><mxGeometry y="120" width="140" height="30" as="geometry"/></mxCell><mxCell id="79l5Amxugq9wVrUoXMFh-123" value="unova" style="text;strokeColor=none;fillColor=none;align=left;verticalAlign=middle;spacingLeft=4;spacingRight=4;overflow=hidden;points=[[0,0.5],[1,0.5]];portConstraint=eastwest;rotatable=0;" parent="79l5Amxugq9wVrUoXMFh-118" vertex="1"><mxGeometry y="150" width="140" height="30" as="geometry"/></mxCell><mxCell id="79l5Amxugq9wVrUoXMFh-124" value="kalos" style="text;strokeColor=none;fillColor=none;align=left;verticalAlign=middle;spacingLeft=4;spacingRight=4;overflow=hidden;points=[[0,0.5],[1,0.5]];portConstraint=eastwest;rotatable=0;" parent="79l5Amxugq9wVrUoXMFh-118" vertex="1"><mxGeometry y="180" width="140" height="30" as="geometry"/></mxCell><mxCell id="79l5Amxugq9wVrUoXMFh-125" value="alola" style="text;strokeColor=none;fillColor=none;align=left;verticalAlign=middle;spacingLeft=4;spacingRight=4;overflow=hidden;points=[[0,0.5],[1,0.5]];portConstraint=eastwest;rotatable=0;" parent="79l5Amxugq9wVrUoXMFh-118" vertex="1"><mxGeometry y="210" width="140" height="30" as="geometry"/></mxCell><mxCell id="79l5Amxugq9wVrUoXMFh-126" value="galar" style="text;strokeColor=none;fillColor=none;align=left;verticalAlign=middle;spacingLeft=4;spacingRight=4;overflow=hidden;points=[[0,0.5],[1,0.5]];portConstraint=eastwest;rotatable=0;" parent="79l5Amxugq9wVrUoXMFh-118" vertex="1"><mxGeometry y="240" width="140" height="30" as="geometry"/></mxCell><mxCell id="79l5Amxugq9wVrUoXMFh-127" value="other" style="text;strokeColor=none;fillColor=none;align=left;verticalAlign=middle;spacingLeft=4;spacingRight=4;overflow=hidden;points=[[0,0.5],[1,0.5]];portConstraint=eastwest;rotatable=0;" parent="79l5Amxugq9wVrUoXMFh-118" vertex="1"><mxGeometry y="270" width="140" height="30" as="geometry"/></mxCell><mxCell id="79l5Amxugq9wVrUoXMFh-140" style="edgeStyle=orthogonalEdgeStyle;rounded=0;orthogonalLoop=1;jettySize=auto;html=1;entryX=0.5;entryY=0;entryDx=0;entryDy=0;startArrow=baseDash;startFill=0;" parent="79l5Amxugq9wVrUoXMFh-1" target="79l5Amxugq9wVrUoXMFh-118" edge="1"><mxGeometry relative="1" as="geometry"><mxPoint x="1110" y="210" as="sourcePoint"/></mxGeometry></mxCell><mxCell id="79l5Amxugq9wVrUoXMFh-128" value="rom_types: enum" style="swimlane;fontStyle=0;childLayout=stackLayout;horizontal=1;startSize=30;horizontalStack=0;resizeParent=1;resizeParentMax=0;resizeLast=0;collapsible=1;marginBottom=0;" parent="79l5Amxugq9wVrUoXMFh-1" vertex="1"><mxGeometry x="240" y="520" width="140" height="210" as="geometry"/></mxCell><mxCell id="79l5Amxugq9wVrUoXMFh-129" value="gb" style="text;strokeColor=none;fillColor=none;align=left;verticalAlign=middle;spacingLeft=4;spacingRight=4;overflow=hidden;points=[[0,0.5],[1,0.5]];portConstraint=eastwest;rotatable=0;" parent="79l5Amxugq9wVrUoXMFh-128" vertex="1"><mxGeometry y="30" width="140" height="30" as="geometry"/></mxCell><mxCell id="79l5Amxugq9wVrUoXMFh-130" value="gbc" style="text;strokeColor=none;fillColor=none;align=left;verticalAlign=middle;spacingLeft=4;spacingRight=4;overflow=hidden;points=[[0,0.5],[1,0.5]];portConstraint=eastwest;rotatable=0;" parent="79l5Amxugq9wVrUoXMFh-128" vertex="1"><mxGeometry y="60" width="140" height="30" as="geometry"/></mxCell><mxCell id="79l5Amxugq9wVrUoXMFh-131" value="gba" style="text;strokeColor=none;fillColor=none;align=left;verticalAlign=middle;spacingLeft=4;spacingRight=4;overflow=hidden;points=[[0,0.5],[1,0.5]];portConstraint=eastwest;rotatable=0;" parent="79l5Amxugq9wVrUoXMFh-128" vertex="1"><mxGeometry y="90" width="140" height="30" as="geometry"/></mxCell><mxCell id="79l5Amxugq9wVrUoXMFh-132" value="nds" style="text;strokeColor=none;fillColor=none;align=left;verticalAlign=middle;spacingLeft=4;spacingRight=4;overflow=hidden;points=[[0,0.5],[1,0.5]];portConstraint=eastwest;rotatable=0;" parent="79l5Amxugq9wVrUoXMFh-128" vertex="1"><mxGeometry y="120" width="140" height="30" as="geometry"/></mxCell><mxCell id="79l5Amxugq9wVrUoXMFh-133" value="3ds" style="text;strokeColor=none;fillColor=none;align=left;verticalAlign=middle;spacingLeft=4;spacingRight=4;overflow=hidden;points=[[0,0.5],[1,0.5]];portConstraint=eastwest;rotatable=0;" parent="79l5Amxugq9wVrUoXMFh-128" vertex="1"><mxGeometry y="150" width="140" height="30" as="geometry"/></mxCell><mxCell id="79l5Amxugq9wVrUoXMFh-134" value="xci" style="text;strokeColor=none;fillColor=none;align=left;verticalAlign=middle;spacingLeft=4;spacingRight=4;overflow=hidden;points=[[0,0.5],[1,0.5]];portConstraint=eastwest;rotatable=0;" parent="79l5Amxugq9wVrUoXMFh-128" vertex="1"><mxGeometry y="180" width="140" height="30" as="geometry"/></mxCell><mxCell id="7aHwa-r83lZ46MPhOt-1-7" style="shape=connector;rounded=0;orthogonalLoop=1;jettySize=auto;html=1;labelBackgroundColor=default;strokeColor=default;fontFamily=Helvetica;fontSize=12;fontColor=default;startArrow=none;endArrow=classic;startFill=0;endFill=1;entryX=0.5;entryY=0;entryDx=0;entryDy=0;edgeStyle=orthogonalEdgeStyle;" parent="79l5Amxugq9wVrUoXMFh-1" source="79l5Amxugq9wVrUoXMFh-23" target="79l5Amxugq9wVrUoXMFh-128" edge="1"><mxGeometry relative="1" as="geometry"/></mxCell></root></mxGraphModel></diagram></mxfile>